<svg width="480" height="480" xmlns="http://www.w3.org/2000/svg">
 <!-- Created with Method Draw - http://github.com/duopixel/Method-Draw/ -->
 <g>
  <title>background</title>
  <rect fill="none" id="canvas_background" height="482" width="482" y="-1" x="-1"/>
  <g display="none" overflow="visible" y="0" x="0" height="100%" width="100%" id="canvasGrid">
   <rect fill="url(#gridpattern)" stroke-width="0" y="0" x="0" height="100%" width="100%"/>
  </g>
 </g>
 <g>
  <title>Layer 1</title>
  <path id="svg_5" d="m239.999954,1.500046c-131.726053,0 -238.499954,106.780179 -238.499954,238.500006c0,131.726595 106.773901,238.499893 238.499954,238.499893c131.719888,0 238.500029,-106.773298 238.500029,-238.499893c0,-131.719827 -106.780123,-238.500006 -238.500029,-238.500006zm21.790849,375.866324l-44.420275,0l0,-42.598127l44.420275,0l0,42.598127zm0,-88.082255l0,14.078341l-44.420275,0l0,-17.346375c0,-52.344611 59.568531,-60.651197 59.568531,-97.854342c0,-16.963889 -15.167431,-29.958686 -35.023922,-29.958686c-20.576101,0 -38.623047,15.160999 -38.623047,15.160999l-25.289747,-31.424659c0,0 24.926794,-25.996815 67.887731,-25.996815c40.808555,0 78.699209,25.27087 78.699209,67.875238c0.019042,59.600044 -62.798481,66.47333 -62.798481,105.46628l0,0.000019z" fill-opacity="null" stroke-opacity="null" stroke-width="1.5" stroke="#000" fill="#fff"/>
 </g>
</svg>